<svg width="206" height="46" viewBox="0 0 206 46" fill="none" xmlns="http://www.w3.org/2000/svg">
<g clip-path="url(#clip0_21_3)">
<path fill-rule="evenodd" clip-rule="evenodd" d="M200.71 20.1088H192.212V31.6238H200.431C201.198 31.6238 201.816 31.3945 202.294 30.9359C202.792 30.4673 203.041 29.899 203.041 29.2111V22.5613C203.041 21.8934 202.822 21.3251 202.374 20.8466C201.935 20.3481 201.378 20.1088 200.71 20.1188V20.1088ZM189.233 9.70048V34.4053H201.109C202.463 34.4053 203.619 33.9666 204.565 33.0893C205.522 32.192 206 31.1253 206 29.8691V21.8535C206 20.6073 205.522 19.5306 204.585 18.6632C203.639 17.7759 202.473 17.3273 201.109 17.3273H192.202V9.71045H189.233V9.70048ZM181.313 31.6337V20.1188H173.085C172.347 20.1188 171.73 20.358 171.222 20.8166C170.743 21.2752 170.494 21.8535 170.475 22.5414V29.2211C170.484 29.9189 170.734 30.4872 171.222 30.9458C171.72 31.4044 172.347 31.6337 173.085 31.6337H181.313ZM184.282 34.4153V17.3273H172.417C171.072 17.3173 169.917 17.756 168.96 18.6532C167.994 19.5405 167.516 20.6073 167.516 21.8734V29.889C167.516 31.1253 167.994 32.192 168.94 33.0793C169.897 33.9766 171.052 34.4153 172.417 34.4153H184.282ZM149.364 34.4153H163.939V31.534H150.082C149.325 31.534 148.677 31.2748 148.149 30.7464C147.661 30.228 147.412 29.56 147.392 28.7625V11.2258H144.304V29.1712C144.304 30.6068 144.802 31.8331 145.778 32.87C146.774 33.8869 147.96 34.4053 149.354 34.4053H149.364V34.4153ZM129.33 17.3273C128.005 17.3173 126.86 17.756 125.893 18.6532C124.927 19.5405 124.449 20.6073 124.449 21.8734V29.889C124.449 31.1253 124.927 32.192 125.873 33.0793C126.85 33.9766 128.005 34.4153 129.33 34.4153H139.791V31.6437H130.018C129.271 31.6437 128.643 31.4144 128.145 30.9558C127.657 30.4872 127.408 29.9189 127.408 29.2211V22.5414C127.408 21.8336 127.657 21.2653 128.145 20.8266C128.643 20.368 129.271 20.1287 130.018 20.1188H139.791V17.3273H129.33ZM109.147 20.0889C108.429 20.0889 107.802 20.3281 107.274 20.7867C106.786 21.2453 106.537 21.8236 106.537 22.5115V24.6948H117.366V22.5115C117.356 21.8036 117.107 21.2154 116.608 20.7668C116.14 20.3082 115.523 20.0789 114.775 20.0889H109.127H109.147ZM108.439 17.3273C107.114 17.3273 105.969 17.7659 105.002 18.6532C104.056 19.5405 103.578 20.6073 103.578 21.8734V30.9359C103.578 31.883 103.966 32.7104 104.733 33.4083C105.52 34.0863 106.447 34.4252 107.543 34.4252H118.89V31.7633H108.061C107.642 31.7534 107.284 31.6437 106.995 31.4443C106.696 31.215 106.547 30.9359 106.547 30.5969V27.4664H120.364V21.8834C120.364 20.6173 119.886 19.5505 118.95 18.6931C118.003 17.7958 116.858 17.3572 115.513 17.3572H108.439V17.3372V17.3273ZM80.9734 11.2258V13.9276H90.0989V34.4053H93.1872V13.9276H102.333V11.2258H80.9734Z" fill="white"/>
<path fill-rule="evenodd" clip-rule="evenodd" d="M12.6222 18.8127C12.6222 18.8127 17.5436 21.7638 20.9507 25.4924C24.3578 29.2211 25.6429 31.3147 28.9305 34.6944C32.218 38.0741 37.9662 39.8088 41.1044 39.6094C44.2425 39.4101 47.002 38.5726 48.9646 37.8747C50.9172 37.1669 54.2546 34.1361 54.2546 34.1361C54.2546 34.1361 53.1388 36.6983 48.9447 39.2306C44.7506 41.7729 42.8278 41.4239 41.194 41.4339C39.5602 41.4339 37.1792 41.4538 37.1792 41.4538C37.1792 41.4538 43.9137 44.7039 49.7217 45.6012C55.5397 46.5085 63.0214 45.9601 66.6078 43.4378C84.4901 30.8561 72.4457 -3.18032 53.4974 0.239271C48.8251 1.07672 47.9684 1.99393 43.9835 4.54616C39.9886 7.0984 39.1119 7.81621 36.2228 7.89597C33.3438 7.97573 32.8656 7.24794 32.8656 7.24794C32.8656 7.24794 33.1246 9.53099 38.1655 9.75032C43.2064 9.96966 44.8801 8.7733 47.6695 8.47421C50.4689 8.18509 53.3879 8.04551 55.7888 9.6606C58.1797 11.2757 58.369 15.1339 58.369 15.1339C58.369 15.1339 54.8922 12.1032 51.5946 12.1231C48.2872 12.143 46.0556 13.0104 43.3359 15.433C40.6162 17.8557 40.2775 18.2146 36.3623 19.4309C32.4471 20.6472 28.3925 16.4798 28.3925 16.4798C28.3925 16.4798 28.6914 19.7399 30.7536 22.0529C32.8158 24.3559 33.9913 24.6849 35.2366 24.9441C36.4819 25.2033 40.1579 25.7815 40.1579 25.7815C40.1579 25.7815 37.4183 26.8483 33.4832 26.8981C29.5481 26.958 28.4224 25.7417 26.5495 24.3858C24.6766 23.0299 23.1523 20.5973 18.8984 19.6103C14.6545 18.6133 12.6222 18.8028 12.6222 18.8028V18.8127ZM0 23.6181C0 23.6181 7.53148 23.7577 11.098 27.267C14.6645 30.7763 15.3718 31.8032 17.952 34.4551C20.5223 37.1071 24.2382 38.1339 26.1012 38.104C27.9542 38.0741 30.385 37.9146 30.385 37.9146C30.385 37.9146 26.5893 36.6185 24.0788 33.0993C21.5683 29.58 19.1575 25.6719 17.3643 24.2462C15.571 22.8205 13.1502 20.707 8.6373 20.8964C4.13435 21.0858 0 23.6081 0 23.6081V23.6181Z" fill="white"/>
</g>
<defs>
<clipPath id="clip0_21_3">
<rect width="206" height="46" fill="white"/>
</clipPath>
</defs>
</svg>
